<svg width="724" height="243" viewBox="0 0 724 243" fill="none" xmlns="http://www.w3.org/2000/svg">
<rect x="17" y="4.5" width="276" height="200" rx="9" fill="#141414" stroke="white" stroke-width="9"/>
<rect width="276" height="200" rx="9" transform="matrix(-1 0 0 1 707 38.5)" fill="#141414" stroke="white" stroke-width="9"/>
<circle cx="293" cy="154.5" r="12.5" fill="#141414" stroke="white" stroke-width="9"/>
<circle cx="293" cy="54.5" r="12.5" fill="#141414" stroke="white" stroke-width="9"/>
<circle cx="17" cy="54.5" r="12.5" fill="#141414" stroke="white" stroke-width="9"/>
<circle cx="293" cy="104.5" r="12.5" fill="#141414" stroke="white" stroke-width="9"/>
<circle cx="431" cy="188.5" r="12.5" fill="#141414" stroke="white" stroke-width="9"/>
<circle cx="707" cy="188.5" r="12.5" fill="#141414" stroke="white" stroke-width="9"/>
<circle cx="431" cy="88.5" r="12.5" fill="#141414" stroke="white" stroke-width="9"/>
<circle cx="431" cy="138.5" r="12.5" fill="#141414" stroke="white" stroke-width="9"/>
<path d="M305 54.5C359.264 54.5 362.912 139.5 419 139.5" stroke="white" stroke-width="9"/>
<path d="M305 104.5C359.264 104.5 362.912 189.5 419 189.5" stroke="white" stroke-width="9"/>
<path d="M419 88.5C364.736 88.5 361.088 154.5 305 154.5" stroke="white" stroke-width="9"/>
<g filter="url(#filter0_f_5_153)">
<path d="M135.565 98.5284V153.5H113.455V59.6818H134.588V75.6236H135.688C137.846 70.3707 141.286 66.197 146.01 63.1023C150.774 60.0076 156.658 58.4602 163.662 58.4602C170.136 58.4602 175.776 59.8447 180.581 62.6136C185.427 65.3826 189.173 69.3935 191.82 74.6463C194.507 79.8991 195.83 86.2718 195.79 93.7642V153.5H173.679V97.1847C173.679 90.9138 172.05 86.0071 168.793 82.4645C165.576 78.9219 161.117 77.1506 155.416 77.1506C151.548 77.1506 148.107 78.0057 145.094 79.7159C142.121 81.3854 139.78 83.8082 138.07 86.9844C136.4 90.1605 135.565 94.0085 135.565 98.5284Z" fill="white"/>
</g>
<path d="M135.565 98.5284V153.5H113.455V59.6818H134.588V75.6236H135.688C137.846 70.3707 141.286 66.197 146.01 63.1023C150.774 60.0076 156.658 58.4602 163.662 58.4602C170.136 58.4602 175.776 59.8447 180.581 62.6136C185.427 65.3826 189.173 69.3935 191.82 74.6463C194.507 79.8991 195.83 86.2718 195.79 93.7642V153.5H173.679V97.1847C173.679 90.9138 172.05 86.0071 168.793 82.4645C165.576 78.9219 161.117 77.1506 155.416 77.1506C151.548 77.1506 148.107 78.0057 145.094 79.7159C142.121 81.3854 139.78 83.8082 138.07 86.9844C136.4 90.1605 135.565 94.0085 135.565 98.5284Z" fill="white"/>
<g filter="url(#filter1_f_5_153)">
<path d="M594.039 106.682V123.784H540.106V106.682H594.039ZM553.421 84.2045H575.532V172.281C575.532 175.254 575.98 177.534 576.876 179.122C577.812 180.67 579.034 181.728 580.54 182.298C582.047 182.868 583.716 183.153 585.549 183.153C586.933 183.153 588.196 183.052 589.336 182.848C590.517 182.644 591.412 182.461 592.023 182.298L595.749 199.584C594.568 199.991 592.878 200.439 590.68 200.928C588.521 201.416 585.875 201.701 582.739 201.783C577.201 201.946 572.213 201.111 567.775 199.278C563.336 197.405 559.814 194.514 557.208 190.605C554.643 186.696 553.38 181.81 553.421 175.946V84.2045Z" fill="white"/>
</g>
<path d="M594.039 106.682V123.784H540.106V106.682H594.039ZM553.421 84.2045H575.532V172.281C575.532 175.254 575.98 177.534 576.876 179.122C577.812 180.67 579.034 181.728 580.54 182.298C582.047 182.868 583.716 183.153 585.549 183.153C586.933 183.153 588.196 183.052 589.336 182.848C590.517 182.644 591.412 182.461 592.023 182.298L595.749 199.584C594.568 199.991 592.878 200.439 590.68 200.928C588.521 201.416 585.875 201.701 582.739 201.783C577.201 201.946 572.213 201.111 567.775 199.278C563.336 197.405 559.814 194.514 557.208 190.605C554.643 186.696 553.38 181.81 553.421 175.946V84.2045Z" fill="white"/>
<defs>
<filter id="filter0_f_5_153" x="105.455" y="50.4602" width="98.3963" height="111.04" filterUnits="userSpaceOnUse" color-interpolation-filters="sRGB">
<feFlood flood-opacity="0" result="BackgroundImageFix"/>
<feBlend mode="normal" in="SourceGraphic" in2="BackgroundImageFix" result="shape"/>
<feGaussianBlur stdDeviation="4" result="effect1_foregroundBlur_5_153"/>
</filter>
<filter id="filter1_f_5_153" x="532.106" y="76.2046" width="71.6435" height="133.822" filterUnits="userSpaceOnUse" color-interpolation-filters="sRGB">
<feFlood flood-opacity="0" result="BackgroundImageFix"/>
<feBlend mode="normal" in="SourceGraphic" in2="BackgroundImageFix" result="shape"/>
<feGaussianBlur stdDeviation="4" result="effect1_foregroundBlur_5_153"/>
</filter>
</defs>
</svg>
